<svg width="1993" height="1128" viewBox="0 0 1993 1128" fill="none" xmlns="http://www.w3.org/2000/svg">
<g clip-path="url(#clip0_9_3)">
<path opacity="0.11" d="M33 659.677C33 659.677 133.43 899.621 434.206 851.154C734.982 802.687 876.274 860.731 971.836 966.095C1067.4 1071.46 1323.93 1060.42 1552.82 1018.47C1781.72 976.514 1915.99 1060.26 1953.18 1127.91C1953.2 1127.92 1952.81 52.2985 1952.81 52.2985L33.044 52.2715L33 659.677Z" fill="url(#paint0_linear_9_3)"/>
<path d="M33.0581 659.829C33.0581 659.829 128.327 864.022 434.268 820.976C740.209 777.93 853.924 788.876 978.456 917.868C1102.99 1046.86 1322.43 1025.41 1551.37 984.934C1780.3 944.46 1911.56 1053.09 1953.16 1127.9C1953.2 1125.5 1953.08 52.2812 1953.08 52.2812L33.0811 52.2923L33.0581 659.829Z" fill="url(#paint1_linear_9_3)"/>
<g opacity="0.14">
<path d="M58.7212 740.014C58.7212 740.014 232.963 347.968 876.154 484.982C1519.35 621.996 1745.57 562.449 1932.32 21" fill="url(#paint2_linear_9_3)"/>
<path d="M58.7212 740.014C58.7212 740.014 232.963 347.968 876.154 484.982C1519.35 621.996 1745.57 562.449 1932.32 21" stroke="#1F4971" stroke-width="128"/>
</g>
</g>
<defs>
<linearGradient id="paint0_linear_9_3" x1="993.092" y1="52.2715" x2="993.092" y2="1127.91" gradientUnits="userSpaceOnUse">
<stop stop-color="white"/>
<stop offset="1" stop-color="#35B300"/>
</linearGradient>
<linearGradient id="paint1_linear_9_3" x1="993.111" y1="52.2812" x2="993.111" y2="1127.9" gradientUnits="userSpaceOnUse">
<stop stop-color="white"/>
<stop offset="1" stop-color="#35B300" stop-opacity="0.63"/>
</linearGradient>
<linearGradient id="paint2_linear_9_3" x1="995.518" y1="21" x2="995.518" y2="740.014" gradientUnits="userSpaceOnUse">
<stop stop-color="white"/>
<stop offset="1" stop-color="#7BC9E2"/>
</linearGradient>
<clipPath id="clip0_9_3">
<rect width="1993" height="1128" fill="white"/>
</clipPath>
</defs>
</svg>
